<?xml version="1.0" encoding="utf-8"?>
<!-- Generated by IcoMoon.io -->
<!DOCTYPE svg PUBLIC "-//W3C//DTD SVG 1.1//EN" "http://www.w3.org/Graphics/SVG/1.1/DTD/svg11.dtd">
<svg version="1.1" xmlns="http://www.w3.org/2000/svg" xmlns:xlink="http://www.w3.org/1999/xlink" width="100" height="100" viewBox="0 0 100 100">
<path fill="#000000" d="M40.36 46.505c0 0 9.46-0.735 9.46-12.295 0-11.575-7.74-17.205-17.55-17.205h-32.27v64.63h32.27c0 0 19.705 0.645 19.705-19.080-0.005-0.005 0.855-16.050-11.615-16.050zM14.22 28.485h18.050c0 0 4.39 0 4.39 6.72 0 6.73-2.58 7.705-5.51 7.705h-16.93v-14.425zM31.355 70.145h-17.135v-17.275h18.050c0 0 6.54-0.090 6.54 8.875 0 7.56-4.885 8.345-7.455 8.4zM78.245 33.44c-23.855 0-23.835 24.835-23.835 24.835s-1.63 24.705 23.835 24.705c0 0 21.215 1.27 21.215-17.185h-10.91c0 0 0.36 6.955-9.94 6.955 0 0-10.92 0.76-10.92-11.25h32.115c0.005-0.005 3.545-28.060-21.56-28.060zM87.95 52.87h-20.37c0 0 1.33-9.96 10.91-9.96s9.46 9.96 9.46 9.96zM90.485 20.8h-25.585v7.97h25.585v-7.97z"></path>
</svg>
