<?xml version="1.0" encoding="utf-8"?>
<!-- Generated by IcoMoon.io -->
<!DOCTYPE svg PUBLIC "-//W3C//DTD SVG 1.1//EN" "http://www.w3.org/Graphics/SVG/1.1/DTD/svg11.dtd">
<svg version="1.1" xmlns="http://www.w3.org/2000/svg" xmlns:xlink="http://www.w3.org/1999/xlink" width="100" height="100" viewBox="0 0 100 100">
<path fill="#000000" d="M85 5h-70c-5.5 0-10 4.5-10 10v70c0 5.505 4.5 10 10 10h70c5.5 0 10-4.495 10-10v-70c0-5.5-4.5-10-10-10zM49.92 77.615c15.295 0 27.69-12.405 27.69-27.695 0-1.69-0.215-3.32-0.515-4.92h7.905v36.080c0 1.91-1.55 3.45-3.465 3.45h-63.070c-1.915 0-3.465-1.54-3.465-3.45v-36.080h7.745c-0.305 1.6-0.52 3.23-0.52 4.92 0 15.295 12.405 27.695 27.695 27.695zM32.615 49.92c0-9.56 7.75-17.305 17.31-17.305 9.555 0 17.31 7.745 17.31 17.305s-7.755 17.31-17.31 17.31c-9.565 0-17.31-7.75-17.31-17.31zM81.535 30h-8.075c-1.91 0-3.46-1.56-3.46-3.46v-8.085c0-1.91 1.55-3.455 3.455-3.455h8.075c1.92 0 3.47 1.545 3.47 3.455v8.080c0 1.905-1.55 3.465-3.465 3.465z"></path>
</svg>
