<?xml version="1.0" encoding="utf-8"?>
<!-- Generated by IcoMoon.io -->
<!DOCTYPE svg PUBLIC "-//W3C//DTD SVG 1.1//EN" "http://www.w3.org/Graphics/SVG/1.1/DTD/svg11.dtd">
<svg version="1.1" xmlns="http://www.w3.org/2000/svg" xmlns:xlink="http://www.w3.org/1999/xlink" width="100" height="100" viewBox="0 0 100 100">
<path fill="#000000" d="M50 2c-26.51 0-48 21.49-48 48s21.49 48 48 48 48-21.49 48-48-21.49-48-48-48zM38.25 69.895h-9.72v-31.28h9.72v31.28zM33.33 34.775c-3.070 0-5.055-2.175-5.055-4.865 0-2.745 2.045-4.855 5.18-4.855s5.055 2.11 5.115 4.855c0 2.69-1.98 4.865-5.24 4.865zM73.75 69.895h-9.72v-17.335c0-4.035-1.41-6.775-4.925-6.775-2.685 0-4.28 1.855-4.985 3.64-0.26 0.635-0.325 1.535-0.325 2.43v18.035h-9.725v-21.3c0-3.905-0.125-7.17-0.255-9.98h8.445l0.445 4.345h0.195c1.28-2.040 4.415-5.050 9.66-5.050 6.395 0 11.19 4.285 11.19 13.495v18.495z"></path>
</svg>
