<?xml version="1.0" encoding="utf-8"?>
<!-- Generated by IcoMoon.io -->
<!DOCTYPE svg PUBLIC "-//W3C//DTD SVG 1.1//EN" "http://www.w3.org/Graphics/SVG/1.1/DTD/svg11.dtd">
<svg version="1.1" xmlns="http://www.w3.org/2000/svg" xmlns:xlink="http://www.w3.org/1999/xlink" width="100" height="100" viewBox="0 0 100 100">
<path fill="#000000" d="M7.87 26.43c2.44 1.31 36.24 19.47 37.5 20.145s2.89 0.995 4.53 0.995c1.64 0 3.27-0.32 4.53-0.995s35.060-18.835 37.5-20.145c2.445-1.315 4.755-6.43 0.27-6.43h-84.595c-4.485 0-2.175 5.115 0.265 6.43zM93.065 37.445c-2.775 1.445-36.935 19.245-38.635 20.135s-2.89 0.995-4.53 0.995-2.83-0.105-4.53-0.995-35.665-18.695-38.44-20.14c-1.95-1.020-1.93 0.175-1.93 1.095s0 36.465 0 36.465c0 2.1 2.83 5 5 5h80c2.17 0 5-2.9 5-5 0 0 0-35.54 0-36.46s0.020-2.115-1.935-1.095z"></path>
</svg>
